<svg width="2938" height="968" xmlns="http://www.w3.org/2000/svg" xmlns:xlink="http://www.w3.org/1999/xlink" overflow="hidden"><defs><clipPath id="clip0"><rect x="760" y="1067" width="2938" height="968"/></clipPath><clipPath id="clip1"><rect x="762" y="1100" width="613" height="587"/></clipPath><clipPath id="clip2"><rect x="762" y="1100" width="613" height="587"/></clipPath><clipPath id="clip3"><rect x="762" y="1100" width="613" height="587"/></clipPath><clipPath id="clip4"><rect x="762" y="1100" width="613" height="587"/></clipPath></defs><g clip-path="url(#clip0)" transform="translate(-760 -1067)"><g clip-path="url(#clip1)"><g clip-path="url(#clip2)"><g clip-path="url(#clip3)"><g clip-path="url(#clip4)"><path d="M651.65 44.8664 1067.12 325.977 958.366 624.033 459.485 571.507Z" stroke="#4E8FD3" stroke-width="1.68814" stroke-linecap="butt" stroke-linejoin="miter" stroke-miterlimit="8" stroke-opacity="1" fill="#4E8FD3" fill-rule="evenodd" fill-opacity="1" transform="matrix(1.00018 0 0 1 306.302 1058.01)"/><path d="M650.28 45.8513 685.819 204.047 588.203 471.57 459.132 569.702Z" stroke="#4E8FD3" stroke-width="1.68814" stroke-linecap="butt" stroke-linejoin="miter" stroke-miterlimit="8" stroke-opacity="1" fill="#FFFFFF" fill-rule="evenodd" fill-opacity="1" transform="matrix(1.00018 0 0 1 306.302 1058.01)"/><path d="M959.158 625.414 837.166 543.481 920.488 312.681 1066.68 327.567Z" stroke="#4E8FD3" stroke-width="1.68814" stroke-linecap="butt" stroke-linejoin="miter" stroke-miterlimit="8" stroke-opacity="1" fill="#FFFFFF" fill-rule="evenodd" fill-opacity="1" transform="matrix(1.00018 0 0 1 306.302 1058.01)"/></g></g></g></g><text fill="#4E8FD3" fill-opacity="1" font-family="Hiragino Kaku Gothic StdN W8,Hiragino Kaku Gothic StdN W8_MSFontService,sans-serif" font-style="normal" font-variant="normal" font-weight="700" font-stretch="normal" font-size="458" text-anchor="start" direction="ltr" writing-mode="lr-tb" unicode-bidi="normal" text-decoration="none" transform="matrix(1 0 0 1 1552.53 1635)">テンマド</text></g></svg>